<?xml version="1.0" encoding="utf-8"?>
<!-- Generator: Adobe Illustrator 28.0.0, SVG Export Plug-In . SVG Version: 6.00 Build 0)  -->
<svg version="1.1" id="Layer_1" xmlns="http://www.w3.org/2000/svg" xmlns:xlink="http://www.w3.org/1999/xlink" x="0px" y="0px"
	 viewBox="0 0 258.5 81.9" style="enable-background:new 0 0 258.5 81.9;" xml:space="preserve">
<style type="text/css">
	.st0{opacity:0.25;fill:none;stroke:#0D3B66;stroke-width:2;stroke-linecap:round;enable-background:new    ;}
	.st1{opacity:0.5;fill:none;stroke:url(#SVGID_1_);stroke-width:2.5;stroke-linecap:round;enable-background:new    ;}
	
		.st2{opacity:0.9;fill:none;stroke:url(#SVGID_00000064312572420044069110000018323498746057276843_);stroke-width:3;enable-background:new    ;}
	
		.st3{fill:none;stroke:url(#SVGID_00000043454986033260643690000014477299027902492852_);stroke-width:2;stroke-linecap:round;stroke-linejoin:round;}
	.st4{enable-background:new    ;}
	.st5{fill:#0D3B66;}
	.st6{fill:#1D72AA;}
	.st7{fill:#5A7A8F;}
</style>
<g>
	<g transform="translate(30, 28)">
		<path class="st0" d="M-23.3,9.1C-21.1-11.1-3.1-25.7,17-23.6S51.8-3.4,49.7,16.7C47.5,36.8,29.5,51.4,9.4,49.3
			c-17.2-1.8-30.8-15.4-32.6-32.6"/>
		
			<linearGradient id="SVGID_1_" gradientUnits="userSpaceOnUse" x1="-267.4386" y1="305.77" x2="-266.2877" y2="304.6191" gradientTransform="matrix(33.8175 0 0 -34.0046 9037.7998 10390.9326)">
			<stop  offset="0" style="stop-color:#1D72AA"/>
			<stop  offset="1" style="stop-color:#0D3B66"/>
		</linearGradient>
		<path class="st1" d="M-12.6,9.1c2.1-14.2,15.3-24,29.5-21.9c14.2,2.1,24,15.3,21.9,29.5s-15.3,24-29.5,21.9
			C-2,36.9-10.9,28-12.6,16.7"/>
		
			<linearGradient id="SVGID_00000087381552884742410570000009073817152747025544_" gradientUnits="userSpaceOnUse" x1="-263.3206" y1="301.2429" x2="-262.1888" y2="300.1111" gradientTransform="matrix(22 0 0 -22 5794 6627)">
			<stop  offset="0" style="stop-color:#0D3B66"/>
			<stop  offset="1" style="stop-color:#1D72AA"/>
		</linearGradient>
		
			<circle style="opacity:0.9;fill:none;stroke:url(#SVGID_00000087381552884742410570000009073817152747025544_);stroke-width:3;enable-background:new    ;" cx="13.4" cy="12.1" r="16.8"/>
		
			<linearGradient id="SVGID_00000021098450623020113540000004261061378540363687_" gradientUnits="userSpaceOnUse" x1="-246.3479" y1="275.8683" x2="-245.1721" y2="275.8683" gradientTransform="matrix(9 0 0 -7.5 2226 2081.5)">
			<stop  offset="0" style="stop-color:#14A38B"/>
			<stop  offset="1" style="stop-color:#0D8A74"/>
		</linearGradient>
		
			<path style="fill:none;stroke:url(#SVGID_00000021098450623020113540000004261061378540363687_);stroke-width:2;stroke-linecap:round;stroke-linejoin:round;" d="
			M7.3,14.4l3.8,3.8L21,6.8"/>
	</g>
	<g>
		<g>
			<g class="st4">
				<path class="st5" d="M106.8,19.8v2.4H102v15.9c0,0.9,0.1,1.7,0.4,2.2c0.3,0.5,0.9,0.8,1.9,0.9c0.8,0,1.6,0,2.5-0.1v2.4
					c-0.4,0-0.9,0-1.3,0c-0.4,0-0.9,0-1.3,0c-1.9,0-3.3-0.4-4-1.1c-0.8-0.7-1.1-2.1-1.1-4.1V22.2H95v-2.4h4.1v-7.1h2.9v7.1H106.8z"
					/>
				<path class="st5" d="M113.1,10.7v13.2h0.1c0.5-1.4,1.5-2.6,2.9-3.5c1.4-0.9,2.9-1.3,4.6-1.3c1.6,0,3,0.2,4.1,0.6
					c1.1,0.4,2,1,2.7,1.8c0.7,0.8,1.1,1.7,1.4,2.9c0.3,1.1,0.4,2.4,0.4,3.8v15.2h-2.9V28.7c0-1-0.1-1.9-0.3-2.8
					c-0.2-0.9-0.5-1.6-1-2.3c-0.5-0.6-1.1-1.1-1.9-1.5c-0.8-0.4-1.7-0.5-2.9-0.5c-1.2,0-2.2,0.2-3.1,0.6c-0.9,0.4-1.7,1-2.3,1.7
					c-0.6,0.7-1.1,1.6-1.5,2.6c-0.4,1-0.5,2.1-0.6,3.2v13.8h-2.9V10.7H113.1z"/>
				<path class="st5" d="M137.1,10.7v4.6h-2.9v-4.6H137.1z M137.1,19.8v23.6h-2.9V19.8H137.1z"/>
				<path class="st5" d="M144.5,19.8v5.5h0.1c0.7-1.9,1.9-3.4,3.4-4.4c1.5-1,3.4-1.5,5.5-1.4v2.9c-1.3-0.1-2.5,0.1-3.6,0.5
					c-1.1,0.4-2,1-2.8,1.8c-0.8,0.8-1.4,1.7-1.8,2.7c-0.4,1.1-0.6,2.2-0.6,3.5v12.6h-2.9V19.8H144.5z"/>
				<path class="st5" d="M172.9,43.4v-4.5h-0.1c-0.3,0.8-0.8,1.5-1.4,2.1c-0.6,0.6-1.3,1.2-2,1.6c-0.8,0.4-1.6,0.8-2.5,1
					c-0.9,0.2-1.7,0.4-2.6,0.4c-1.8,0-3.4-0.3-4.7-1c-1.3-0.7-2.4-1.6-3.3-2.7c-0.9-1.1-1.5-2.5-2-4c-0.4-1.5-0.6-3.1-0.6-4.8
					c0-1.7,0.2-3.3,0.6-4.8c0.4-1.5,1.1-2.8,2-4c0.9-1.1,2-2.1,3.3-2.7c1.3-0.7,2.9-1,4.7-1c0.9,0,1.7,0.1,2.6,0.3
					c0.8,0.2,1.6,0.5,2.4,1c0.7,0.4,1.4,1,1.9,1.6c0.6,0.6,1,1.4,1.3,2.2h0.1V10.7h2.9v32.7H172.9z M157.1,35.3
					c0.3,1.2,0.7,2.3,1.4,3.2c0.6,0.9,1.4,1.7,2.4,2.3c1,0.6,2.2,0.9,3.5,0.9c1.5,0,2.8-0.3,3.9-0.9c1.1-0.6,1.9-1.4,2.6-2.3
					c0.7-0.9,1.1-2,1.4-3.2c0.3-1.2,0.4-2.4,0.4-3.6c0-1.2-0.1-2.4-0.4-3.6c-0.3-1.2-0.8-2.3-1.4-3.2c-0.7-0.9-1.5-1.7-2.6-2.3
					c-1.1-0.6-2.3-0.9-3.9-0.9c-1.4,0-2.6,0.3-3.5,0.9c-1,0.6-1.8,1.4-2.4,2.3c-0.6,0.9-1.1,2-1.4,3.2c-0.3,1.2-0.4,2.4-0.4,3.6
					C156.6,32.8,156.8,34,157.1,35.3z"/>
			</g>
			<g class="st4">
				<path class="st6" d="M186.6,10.7v32.7h-6.5V10.7H186.6z"/>
				<path class="st6" d="M191.2,16.1v-5.4h6.5v5.4H191.2z M197.7,19.7v23.7h-6.5V19.7H197.7z"/>
				<path class="st6" d="M208.2,19.7V23h0.1c0.8-1.4,1.9-2.4,3.2-3c1.3-0.6,2.7-0.9,4-0.9c1.7,0,3.2,0.2,4.3,0.7
					c1.1,0.5,2,1.1,2.6,2c0.6,0.8,1.1,1.9,1.4,3.1c0.3,1.2,0.4,2.5,0.4,4v14.6h-6.5V30.1c0-2-0.3-3.4-0.9-4.4
					c-0.6-1-1.7-1.4-3.3-1.4c-1.8,0-3.1,0.5-3.8,1.6c-0.8,1.1-1.2,2.8-1.2,5.2v12.4h-6.5V19.7H208.2z"/>
				<path class="st6" d="M235.5,37.7c1,0.9,2.4,1.4,4.2,1.4c1.3,0,2.4-0.3,3.4-1c0.9-0.7,1.5-1.4,1.7-2.1h5.7
					c-0.9,2.8-2.3,4.9-4.2,6.1c-1.9,1.2-4.2,1.8-6.9,1.8c-1.9,0-3.5-0.3-5-0.9c-1.5-0.6-2.8-1.4-3.8-2.5c-1-1.1-1.8-2.4-2.4-3.9
					c-0.6-1.5-0.8-3.2-0.8-5c0-1.8,0.3-3.4,0.9-4.9c0.6-1.5,1.4-2.8,2.5-4c1.1-1.1,2.3-2,3.8-2.6c1.5-0.6,3.1-1,4.9-1
					c2,0,3.8,0.4,5.3,1.2c1.5,0.8,2.7,1.8,3.7,3.1c1,1.3,1.7,2.8,2.1,4.5c0.4,1.7,0.6,3.4,0.5,5.3h-17.1
					C233.9,35.3,234.5,36.8,235.5,37.7z M242.8,25.3c-0.8-0.9-2-1.3-3.6-1.3c-1,0-1.9,0.2-2.6,0.5c-0.7,0.4-1.2,0.8-1.6,1.3
					c-0.4,0.5-0.7,1.1-0.9,1.6c-0.2,0.6-0.3,1.1-0.3,1.6h10.6C244.1,27.4,243.6,26.1,242.8,25.3z"/>
			</g>
		</g>
		<g class="st4">
			<path class="st7" d="M98.2,57h1.5v13.9h-1.5V57z"/>
			<path class="st7" d="M114.7,64.9v6.1h-1.4V65c0-2.2-1.2-3.3-3.1-3.3c-2.2,0-3.7,1.4-3.7,3.8v5.5h-1.4V60.5h1.3v1.9
				c0.8-1.3,2.2-2,4-2C113,60.4,114.7,61.9,114.7,64.9z"/>
			<path class="st7" d="M125.3,70.3c-0.6,0.5-1.4,0.7-2.2,0.7c-2,0-3.1-1.1-3.1-3v-6.3h-1.9v-1.2h1.9v-2.3h1.4v2.3h3.2v1.2h-3.2v6.2
				c0,1.2,0.6,1.9,1.8,1.9c0.6,0,1.2-0.2,1.5-0.5L125.3,70.3z"/>
			<path class="st7" d="M137.7,66.1H129c0.2,2.2,1.8,3.6,4.1,3.6c1.3,0,2.4-0.5,3.2-1.4l0.8,0.9c-0.9,1.1-2.4,1.7-4,1.7
				c-3.3,0-5.5-2.2-5.5-5.3c0-3.1,2.2-5.3,5.1-5.3c2.9,0,5.1,2.2,5.1,5.3C137.7,65.8,137.7,66,137.7,66.1z M129,65.1h7.4
				c-0.2-2-1.7-3.5-3.7-3.5C130.7,61.6,129.2,63,129,65.1z"/>
			<path class="st7" d="M147.1,60.4v1.4c-0.1,0-0.2,0-0.3,0c-2.2,0-3.5,1.4-3.5,3.9v5.3h-1.4V60.5h1.3v2
				C143.8,61.1,145.2,60.4,147.1,60.4z"/>
			<path class="st7" d="M160.4,64.9v6.1H159V65c0-2.2-1.2-3.3-3.1-3.3c-2.2,0-3.7,1.4-3.7,3.8v5.5h-1.4V60.5h1.3v1.9
				c0.8-1.3,2.2-2,4-2C158.7,60.4,160.4,61.9,160.4,64.9z"/>
			<path class="st7" d="M173.3,64.4v6.5H172v-1.6c-0.6,1.1-1.9,1.7-3.6,1.7c-2.4,0-3.8-1.2-3.8-3c0-1.6,1-3,4-3h3.3v-0.6
				c0-1.8-1-2.8-3-2.8c-1.3,0-2.6,0.5-3.5,1.2l-0.6-1.1c1.1-0.9,2.6-1.4,4.2-1.4C171.8,60.4,173.3,61.7,173.3,64.4z M171.9,67.8
				v-1.7h-3.3c-2,0-2.7,0.8-2.7,1.9c0,1.2,1,2,2.6,2C170.2,69.9,171.4,69.2,171.9,67.8z"/>
			<path class="st7" d="M178.3,56.2h1.4v14.7h-1.4V56.2z"/>
			<path class="st7" d="M200.3,67.2h-7.7l-1.7,3.7h-1.5l6.4-13.9h1.4l6.4,13.9H202L200.3,67.2z M199.8,66l-3.3-7.5l-3.3,7.5H199.8z"
				/>
			<path class="st7" d="M215.9,60.5v10.4h-1.3V69c-0.7,1.3-2.1,2-3.8,2c-2.7,0-4.4-1.5-4.4-4.5v-6.1h1.4v5.9c0,2.2,1.2,3.4,3.1,3.4
				c2.2,0,3.6-1.4,3.6-3.8v-5.5H215.9z"/>
			<path class="st7" d="M230.6,56.2v14.7h-1.3v-2.1c-0.9,1.4-2.3,2.2-4,2.2c-3,0-5.2-2.2-5.2-5.3c0-3.2,2.2-5.3,5.2-5.3
				c1.7,0,3.1,0.7,4,2.1v-6.3H230.6z M229.2,65.7c0-2.4-1.7-4.1-3.9-4.1c-2.2,0-3.9,1.6-3.9,4.1c0,2.4,1.7,4.1,3.9,4.1
				C227.5,69.8,229.2,68.1,229.2,65.7z"/>
			<path class="st7" d="M235.4,57.2c0-0.5,0.5-1,1-1s1,0.4,1,1c0,0.6-0.4,1-1,1C235.8,58.2,235.4,57.7,235.4,57.2z M235.7,60.5h1.4
				v10.4h-1.4V60.5z"/>
			<path class="st7" d="M247.7,70.3c-0.6,0.5-1.4,0.7-2.2,0.7c-2,0-3.1-1.1-3.1-3v-6.3h-1.9v-1.2h1.9v-2.3h1.4v2.3h3.2v1.2h-3.2v6.2
				c0,1.2,0.6,1.9,1.8,1.9c0.6,0,1.2-0.2,1.5-0.5L247.7,70.3z"/>
		</g>
	</g>
</g>
</svg>
